<svg viewBox="-1.5 -1.5 33 36" fill="none" xmlns="http://www.w3.org/2000/svg" role="img" aria-label="Pachamama">
<path d="M11.3506 3.71478C11.7378 3.71478 12.0518 4.02875 12.0518 4.41595V22.3154L22.5312 4.16498L22.6133 4.05072C22.8142 3.82423 23.1468 3.74657 23.4307 3.88373L23.4951 3.91888L23.959 4.22162C26.2386 5.78809 27.8961 8.12163 28.6172 10.8124C29.4175 13.7992 28.9982 16.9822 27.4521 19.6601C25.9061 22.3378 23.3597 24.2914 20.373 25.0917C17.5788 25.8404 14.6151 25.519 12.0518 24.2089V31.6494C12.0518 32.0366 11.7378 32.3505 11.3506 32.3505H1.05176C0.664553 32.3505 0.35059 32.0366 0.350586 31.6494V4.41595C0.350586 4.02875 0.664551 3.71478 1.05176 3.71478H11.3506Z" fill="black" stroke="black" stroke-width="0.701101"/>
<path d="M2.6499 0.378906H12.2476C12.4412 0.378906 12.5981 0.535888 12.5981 0.729492V27.2617C12.5981 27.4553 12.4412 27.6123 12.2476 27.6123H2.6499C2.4563 27.6123 2.29932 27.4553 2.29932 27.2617V0.729492C2.29932 0.535888 2.4563 0.378906 2.6499 0.378906ZM24.2104 0.782227C24.3104 0.609437 24.5175 0.566847 24.6597 0.661133C26.8794 2.13317 28.4946 4.36933 29.188 6.95703C29.9402 9.76419 29.5463 12.7556 28.0933 15.2725C26.6402 17.7893 24.2461 19.6257 21.439 20.3779C18.8514 21.0712 16.1077 20.7907 13.7231 19.6045C13.5704 19.5285 13.5034 19.3282 13.603 19.1553L24.2104 0.782227Z" fill="white" stroke="black" stroke-width="0.701101"/>
</svg>
